<svg id="Layer_1" data-name="Layer 1" xmlns="http://www.w3.org/2000/svg" viewBox="0 0 100 100"><defs><style>.cls-1{fill:#42a191;}</style></defs><path class="cls-1" d="M34.5,65.27h1.86a.44.44,0,0,1,.44.29l1.73,4.22c0,.11.15.09.15,0V65.65a.34.34,0,0,1,.38-.38h1.42a.33.33,0,0,1,.38.38v8.11a.34.34,0,0,1-.38.38H38.61a.44.44,0,0,1-.44-.29l-1.72-4.22c-.05-.12-.15-.09-.15,0v4.1a.34.34,0,0,1-.38.38H34.5a.35.35,0,0,1-.38-.38V65.65A.34.34,0,0,1,34.5,65.27Z"/><path class="cls-1" d="M49.18,68.33v5.38c0,.28-.12.43-.38.43H47.38a.34.34,0,0,1-.38-.38v-1.1c0-.26-.12-.39-.38-.39H45.53a.35.35,0,0,0-.38.39v1.1a.33.33,0,0,1-.38.38H43.35c-.24,0-.38-.15-.38-.43V68.33c0-1.59.26-3.29,3.11-3.29S49.18,66.74,49.18,68.33ZM47,69.7V68.33c0-.6-.09-.91-.92-.91s-.93.31-.93.91v1.39a.35.35,0,0,0,.38.38h1.09A.35.35,0,0,0,47,69.7Z"/><path class="cls-1" d="M51.68,65.27h1.39a.33.33,0,0,1,.38.38v8.11a.34.34,0,0,1-.38.38H51.68a.35.35,0,0,1-.38-.38V65.65A.34.34,0,0,1,51.68,65.27Z"/><path class="cls-1" d="M56,65.27h1.42a.33.33,0,0,1,.38.38v5.93a.35.35,0,0,0,.38.38H61a.33.33,0,0,1,.38.38v1.42a.34.34,0,0,1-.38.38H56a.35.35,0,0,1-.38-.38V65.65A.34.34,0,0,1,56,65.27Z"/><path class="cls-1" d="M67.1,68.09a1,1,0,0,0-1.1-.85c-.5,0-.8.3-.75.59.18,1,4.18,1,4.18,3.87,0,.38-.43,2.63-3.43,2.63-2.66,0-3.23-1.75-3.3-2.74a.37.37,0,0,1,.33-.42l1.43-.31q.39-.08.42.33a1,1,0,0,0,1.12,1c.62,0,1.07-.37,1-.71-.24-1.08-4.06-.84-4.06-3.75,0-.38.22-2.63,3.06-2.63,2.61,0,3.22,1.7,3.29,2.62a.37.37,0,0,1-.33.41l-1.44.32C67.26,68.46,67.14,68.35,67.1,68.09Z"/><path class="cls-1" d="M78.14,61.52c1.41.11,2.73.25,4.1.39l-.62,1.63c-1.24-.14-2.39-.28-3.63-.41-2.15-.19-4.3-.42-6.45-.55l-1.62-.12-1.62-.11-3.24-.17-.81,0-.81,0-1.62-.06c-1.08,0-2.16-.09-3.24-.1l-3.24-.06H52.09c-4.32,0-8.65.11-13,.34s-8.64.54-12.95,1-8.6,1-12.89,1.62S4.72,66.23.5,67.22C4.7,66.14,9,65.31,13.23,64.55s8.57-1.37,12.88-1.89,8.63-.94,13-1.25,8.67-.5,13-.61l3.26-.06H58.6c1.08,0,2.17,0,3.25,0l1.63,0h.82l.81,0,3.26.11c.55,0,1.09.05,1.63.07l1.63.09C73.8,61.19,76,61.37,78.14,61.52Z"/><path class="cls-1" d="M98.93,66.17c-5.39-1.09-8.28-1.5-13.75-2.21l.67-1.66c4.71.58,5.61.66,9.12,1.36a13,13,0,0,1,4.33,1.67h0A.47.47,0,0,1,98.93,66.17Z"/><path class="cls-1" d="M30.56,54v.95A46.86,46.86,0,0,1,23.14,58a18.89,18.89,0,0,1-5,.73,12.89,12.89,0,0,1-6-1.33A8,8,0,0,1,8,52.85a13.89,13.89,0,0,1-.57-4.09,18.26,18.26,0,0,1,1-6.13A26.66,26.66,0,0,1,18.61,30c3.44-2.25,7.9-4.31,12.09-4.31a5.33,5.33,0,0,1,2.57.57,2.64,2.64,0,0,1,1.34,1.81V29a5.74,5.74,0,0,1-.55,2.35,10.09,10.09,0,0,1-1.36,2.21A15,15,0,0,1,28.62,37a34.63,34.63,0,0,1-4.95,2.24l.76-3.14a22.16,22.16,0,0,0,6.75-3.94c1.4-1.3,2.1-2.52,2.1-3.67a1.73,1.73,0,0,0-.74-1.45,3.55,3.55,0,0,0-2.12-.54c-5.9,0-11.38,4.82-14.69,9.3A28.71,28.71,0,0,0,12.27,42a15.85,15.85,0,0,0-.89,8.15c.08.53.13,1,.16,1.27a7.42,7.42,0,0,0,2.67,4.5,7.89,7.89,0,0,0,5,1.6h.29a16.82,16.82,0,0,0,5.66-1.14Q26.66,55.85,30.56,54Z"/><path class="cls-1" d="M29.42,58.17l8.75-30.52,3.33-.94-8.85,29a28.87,28.87,0,0,1,2.71-5.13c1.49-2.09,3-3.14,4.61-3.14h.19a1.92,1.92,0,0,1,1.66.71,2.75,2.75,0,0,1,.53,1.67,6,6,0,0,1-.29,1.9c-.31.82-.6,1.6-.85,2.33a12.87,12.87,0,0,0-.86,2.9v.19c.16.32.32.47.49.47a3.71,3.71,0,0,0,1.85-1c.45-.38.94-.83,1.46-1.33l.38.47a10.63,10.63,0,0,1-2.18,1.86,5.17,5.17,0,0,1-2.76.9H39.4c-1.2,0-1.81-.63-1.81-1.9a10.13,10.13,0,0,1,.62-3c.29-.83.59-1.65.91-2.48a6.53,6.53,0,0,1,.16-.64,2.5,2.5,0,0,0,.12-.69c0-.44-.06-.69-.19-.76a1,1,0,0,0-.67-.19,1.39,1.39,0,0,0-.71.22,3.25,3.25,0,0,0-.71.54,16.25,16.25,0,0,0-2.9,4q-.39.72-2.14,4.61Z"/><path class="cls-1" d="M43.3,58.17,46,48.1l2.94-.48L47,54.36a35.09,35.09,0,0,1,2.44-4.13q1.91-2.56,3.78-2.8h.28a1.18,1.18,0,0,1,1.13.57,3.06,3.06,0,0,1,.31,1.43,8.45,8.45,0,0,1-.07,1c0,.33-.12.75-.22,1.26l-2.28.38c0-.06.06-.4.19-1a7,7,0,0,0,.19-1.38c0-.57-.16-.85-.47-.85h-.19c-1,.25-2.22,1.6-3.62,4a56.44,56.44,0,0,0-2.56,5.27Z"/><path class="cls-1" d="M61.85,53.24l-.39-.48,4.28-4.38c0-.44.08-.91.16-1.4a2.7,2.7,0,0,1,.57-1.29,1.55,1.55,0,0,1,1.26-.54l.76.19a.88.88,0,0,1,.36.4,1.16,1.16,0,0,1,.12.45c0,.42-.32.88-1,1.38l-1.43,1a9.09,9.09,0,0,1,2.16,2.12,4.4,4.4,0,0,1,.79,2.63,4.5,4.5,0,0,1-.74,2.6,4.91,4.91,0,0,1-2.11,1.68,6.92,6.92,0,0,1-3.14.76h-.86a3.78,3.78,0,0,1-1.76-.42,1.4,1.4,0,0,1-.8-1.29,1.26,1.26,0,0,1,.33-.85,1,1,0,0,1,.81-.38,1.15,1.15,0,0,1,.85.29c.32.4.67.81,1.05,1.24a2.1,2.1,0,0,0,1.23.75h.29a1.32,1.32,0,0,0,1.24-1A8,8,0,0,0,66.31,54a23.17,23.17,0,0,0-.12-2.33q-.12-1.19-.27-2.52Z"/><path class="cls-1" d="M72.39,45.72H71v-.67l1.67,0,2.53-7.81,3.12-.68-2.67,8.47h3.14v.67H75.53l-3.14,9.89-.28,1c0,.38.15.57.47.57a4.63,4.63,0,0,0,1.86-.81l1.66-1.09.28.48a17.4,17.4,0,0,1-2.23,1.71,5.31,5.31,0,0,1-2.71,1,1.85,1.85,0,0,1-1.54-.57,2.26,2.26,0,0,1-.46-1.5l.1-1.23Z"/><path class="cls-1" d="M90.36,55l-3.23,2,2.66-9.6H86.74A34.9,34.9,0,0,1,85,51.27a21.4,21.4,0,0,1-2.26,3.55,9.56,9.56,0,0,1-1.3,1.35,3.12,3.12,0,0,1-1.68,1l-.29-.1a.69.69,0,0,1-.48-.76,7.93,7.93,0,0,1,.24-1,1.73,1.73,0,0,0,0-.38c.33-1.05.64-2,.94-2.81,1-2.85,1.56-4.39,1.62-4.61l-3.38.38C78,49,77.6,50.16,77.21,51.33a15.89,15.89,0,0,0-.92,4.56c0,1.65.57,2.47,1.73,2.47h.29c1.56,0,3.15-1,4.75-2.9a27.41,27.41,0,0,0,3-4.8l-2.54,8.28A22.44,22.44,0,0,0,80.11,61c-.21.16-.31.25-.5.41.13,0,.87.13,1.17.15a30,30,0,0,1,2.54-1.85c-.72,2.35-1.31,4.06-1.75,5.11-1.11,2.64-2.14,4-3.09,4h-.29a1.34,1.34,0,0,1-.86-1.44,3.8,3.8,0,0,1,.22-1c.14-.45.23-.72.26-.81a7.28,7.28,0,0,1,1.09-2l-1.16-.16a5.23,5.23,0,0,0-.4.56,9,9,0,0,0-.74,1.53A4.22,4.22,0,0,0,76.29,67a2.33,2.33,0,0,0,1,2.1,2.76,2.76,0,0,0,1.24.29,4.56,4.56,0,0,0,1.78-.43A4.71,4.71,0,0,0,81.8,68,12.59,12.59,0,0,0,85,63.29q.57-1.38,1.8-5.39a21.05,21.05,0,0,0,3.81-2.39Z"/><path class="cls-1" d="M56.42,47.62l3-.29L57.08,55.8l-.19,1c0,.45.16.67.48.67a2.83,2.83,0,0,0,1.31-.62,16,16,0,0,0,1.92-1.66l.48.47a19.88,19.88,0,0,1-2,1.86,4.11,4.11,0,0,1-2.42.9h-.48A2,2,0,0,1,54.68,58a1.7,1.7,0,0,1-.45-1.26,5.67,5.67,0,0,1,.28-1.81Z"/><path class="cls-1" d="M57.86,45.63l-.46-1.2a.49.49,0,0,1,.12-.53l.92-.91a.49.49,0,0,1,.81.18l.46,1.21a.48.48,0,0,1-.12.52l-.92.91A.49.49,0,0,1,57.86,45.63Z"/></svg>